<svg width="1363" height="163" viewBox="0 0 1363 163" fill="none" xmlns="http://www.w3.org/2000/svg">
<path d="M0 15C0 6.71573 6.71573 0 15 0H37V163H15C6.71573 163 0 156.284 0 148V15Z" fill="#2D2254"/>
<rect width="1097" height="163" transform="translate(37)" fill="#F0F0F0"/>
<path d="M101.906 53.9219L94.3945 51.2383V48.0859L104.602 52.375V54.6367L101.906 53.9219ZM94.3945 56.1719L101.918 53.4297L104.602 52.7852V55.0352L94.3945 59.3242V56.1719ZM122.789 55.3398H126.293C126.223 56.4883 125.906 57.5078 125.344 58.3984C124.789 59.2891 124.012 59.9844 123.012 60.4844C122.02 60.9844 120.824 61.2344 119.426 61.2344C118.332 61.2344 117.352 61.0469 116.484 60.6719C115.617 60.2891 114.875 59.7422 114.258 59.0312C113.648 58.3203 113.184 57.4609 112.863 56.4531C112.543 55.4453 112.383 54.3164 112.383 53.0664V51.8828C112.383 50.6328 112.547 49.5039 112.875 48.4961C113.211 47.4805 113.688 46.6172 114.305 45.9062C114.93 45.1953 115.676 44.6484 116.543 44.2656C117.41 43.8828 118.379 43.6914 119.449 43.6914C120.871 43.6914 122.07 43.9492 123.047 44.4648C124.031 44.9805 124.793 45.6914 125.332 46.5977C125.879 47.5039 126.207 48.5352 126.316 49.6914H122.801C122.762 49.0039 122.625 48.4219 122.391 47.9453C122.156 47.4609 121.801 47.0977 121.324 46.8555C120.855 46.6055 120.23 46.4805 119.449 46.4805C118.863 46.4805 118.352 46.5898 117.914 46.8086C117.477 47.0273 117.109 47.3594 116.812 47.8047C116.516 48.25 116.293 48.8125 116.145 49.4922C116.004 50.1641 115.934 50.9531 115.934 51.8594V53.0664C115.934 53.9492 116 54.7266 116.133 55.3984C116.266 56.0625 116.469 56.625 116.742 57.0859C117.023 57.5391 117.383 57.8828 117.82 58.1172C118.266 58.3438 118.801 58.457 119.426 58.457C120.16 58.457 120.766 58.3398 121.242 58.1055C121.719 57.8711 122.082 57.5234 122.332 57.0625C122.59 56.6016 122.742 56.0273 122.789 55.3398ZM127.852 54.7891V54.543C127.852 53.6133 127.984 52.7578 128.25 51.9766C128.516 51.1875 128.902 50.5039 129.41 49.9258C129.918 49.3477 130.543 48.8984 131.285 48.5781C132.027 48.25 132.879 48.0859 133.84 48.0859C134.801 48.0859 135.656 48.25 136.406 48.5781C137.156 48.8984 137.785 49.3477 138.293 49.9258C138.809 50.5039 139.199 51.1875 139.465 51.9766C139.73 52.7578 139.863 53.6133 139.863 54.543V54.7891C139.863 55.7109 139.73 56.5664 139.465 57.3555C139.199 58.1367 138.809 58.8203 138.293 59.4062C137.785 59.9844 137.16 60.4336 136.418 60.7539C135.676 61.0742 134.824 61.2344 133.863 61.2344C132.902 61.2344 132.047 61.0742 131.297 60.7539C130.555 60.4336 129.926 59.9844 129.41 59.4062C128.902 58.8203 128.516 58.1367 128.25 57.3555C127.984 56.5664 127.852 55.7109 127.852 54.7891ZM131.227 54.543V54.7891C131.227 55.3203 131.273 55.8164 131.367 56.2773C131.461 56.7383 131.609 57.1445 131.812 57.4961C132.023 57.8398 132.297 58.1094 132.633 58.3047C132.969 58.5 133.379 58.5977 133.863 58.5977C134.332 58.5977 134.734 58.5 135.07 58.3047C135.406 58.1094 135.676 57.8398 135.879 57.4961C136.082 57.1445 136.23 56.7383 136.324 56.2773C136.426 55.8164 136.477 55.3203 136.477 54.7891V54.543C136.477 54.0273 136.426 53.543 136.324 53.0898C136.23 52.6289 136.078 52.2227 135.867 51.8711C135.664 51.5117 135.395 51.2305 135.059 51.0273C134.723 50.8242 134.316 50.7227 133.84 50.7227C133.363 50.7227 132.957 50.8242 132.621 51.0273C132.293 51.2305 132.023 51.5117 131.812 51.8711C131.609 52.2227 131.461 52.6289 131.367 53.0898C131.273 53.543 131.227 54.0273 131.227 54.543ZM149.426 58.2344V43H152.824V61H149.766L149.426 58.2344ZM141.41 54.8125V54.5664C141.41 53.5977 141.52 52.7188 141.738 51.9297C141.957 51.1328 142.277 50.4492 142.699 49.8789C143.121 49.3086 143.641 48.8672 144.258 48.5547C144.875 48.2422 145.578 48.0859 146.367 48.0859C147.109 48.0859 147.758 48.2422 148.312 48.5547C148.875 48.8672 149.352 49.3125 149.742 49.8906C150.141 50.4609 150.461 51.1367 150.703 51.918C150.945 52.6914 151.121 53.5391 151.23 54.4609V55C151.121 55.8828 150.945 56.7031 150.703 57.4609C150.461 58.2188 150.141 58.8828 149.742 59.4531C149.352 60.0156 148.875 60.4531 148.312 60.7656C147.75 61.0781 147.094 61.2344 146.344 61.2344C145.555 61.2344 144.852 61.0742 144.234 60.7539C143.625 60.4336 143.109 59.9844 142.688 59.4062C142.273 58.8281 141.957 58.1484 141.738 57.3672C141.52 56.5859 141.41 55.7344 141.41 54.8125ZM144.785 54.5664V54.8125C144.785 55.3359 144.824 55.8242 144.902 56.2773C144.988 56.7305 145.125 57.1328 145.312 57.4844C145.508 57.8281 145.758 58.0977 146.062 58.293C146.375 58.4805 146.754 58.5742 147.199 58.5742C147.777 58.5742 148.254 58.4453 148.629 58.1875C149.004 57.9219 149.289 57.5586 149.484 57.0977C149.688 56.6367 149.805 56.1055 149.836 55.5039V53.9688C149.812 53.4766 149.742 53.0352 149.625 52.6445C149.516 52.2461 149.352 51.9062 149.133 51.625C148.922 51.3438 148.656 51.125 148.336 50.9688C148.023 50.8125 147.652 50.7344 147.223 50.7344C146.785 50.7344 146.41 50.8359 146.098 51.0391C145.785 51.2344 145.531 51.5039 145.336 51.8477C145.148 52.1914 145.008 52.5977 144.914 53.0664C144.828 53.5273 144.785 54.0273 144.785 54.5664ZM161.297 61.2344C160.312 61.2344 159.43 61.0781 158.648 60.7656C157.867 60.4453 157.203 60.0039 156.656 59.4414C156.117 58.8789 155.703 58.2266 155.414 57.4844C155.125 56.7344 154.98 55.9375 154.98 55.0938V54.625C154.98 53.6641 155.117 52.7852 155.391 51.9883C155.664 51.1914 156.055 50.5 156.562 49.9141C157.078 49.3281 157.703 48.8789 158.438 48.5664C159.172 48.2461 160 48.0859 160.922 48.0859C161.82 48.0859 162.617 48.2344 163.312 48.5312C164.008 48.8281 164.59 49.25 165.059 49.7969C165.535 50.3438 165.895 51 166.137 51.7656C166.379 52.5234 166.5 53.3672 166.5 54.2969V55.7031H156.422V53.4531H163.184V53.1953C163.184 52.7266 163.098 52.3086 162.926 51.9414C162.762 51.5664 162.512 51.2695 162.176 51.0508C161.84 50.832 161.41 50.7227 160.887 50.7227C160.441 50.7227 160.059 50.8203 159.738 51.0156C159.418 51.2109 159.156 51.4844 158.953 51.8359C158.758 52.1875 158.609 52.6016 158.508 53.0781C158.414 53.5469 158.367 54.0625 158.367 54.625V55.0938C158.367 55.6016 158.438 56.0703 158.578 56.5C158.727 56.9297 158.934 57.3008 159.199 57.6133C159.473 57.9258 159.801 58.168 160.184 58.3398C160.574 58.5117 161.016 58.5977 161.508 58.5977C162.117 58.5977 162.684 58.4805 163.207 58.2461C163.738 58.0039 164.195 57.6406 164.578 57.1562L166.219 58.9375C165.953 59.3203 165.59 59.6875 165.129 60.0391C164.676 60.3906 164.129 60.6797 163.488 60.9062C162.848 61.125 162.117 61.2344 161.297 61.2344ZM181.512 55.7617V43.9375H185.016V55.7617C185.016 56.9023 184.766 57.8828 184.266 58.7031C183.766 59.5156 183.082 60.1406 182.215 60.5781C181.355 61.0156 180.387 61.2344 179.309 61.2344C178.191 61.2344 177.203 61.0469 176.344 60.6719C175.484 60.2969 174.809 59.7227 174.316 58.9492C173.824 58.168 173.578 57.1797 173.578 55.9844H177.105C177.105 56.6094 177.191 57.1055 177.363 57.4727C177.543 57.8398 177.797 58.1016 178.125 58.2578C178.453 58.4141 178.848 58.4922 179.309 58.4922C179.754 58.4922 180.141 58.3867 180.469 58.1758C180.797 57.9648 181.051 57.6562 181.23 57.25C181.418 56.8438 181.512 56.3477 181.512 55.7617ZM195.305 57.9648V48.3203H198.68V61H195.504L195.305 57.9648ZM195.68 55.3633L196.676 55.3398C196.676 56.1836 196.578 56.9688 196.383 57.6953C196.188 58.4141 195.895 59.0391 195.504 59.5703C195.113 60.0938 194.621 60.5039 194.027 60.8008C193.434 61.0898 192.734 61.2344 191.93 61.2344C191.312 61.2344 190.742 61.1484 190.219 60.9766C189.703 60.7969 189.258 60.5195 188.883 60.1445C188.516 59.7617 188.227 59.2734 188.016 58.6797C187.812 58.0781 187.711 57.3555 187.711 56.5117V48.3203H191.086V56.5352C191.086 56.9102 191.129 57.2266 191.215 57.4844C191.309 57.7422 191.438 57.9531 191.602 58.1172C191.766 58.2812 191.957 58.3984 192.176 58.4688C192.402 58.5391 192.652 58.5742 192.926 58.5742C193.621 58.5742 194.168 58.4336 194.566 58.1523C194.973 57.8711 195.258 57.4883 195.422 57.0039C195.594 56.5117 195.68 55.9648 195.68 55.3633ZM204.562 51.0273V61H201.188V48.3203H204.352L204.562 51.0273ZM204.07 54.2148H203.156C203.156 53.2773 203.277 52.4336 203.52 51.6836C203.762 50.9258 204.102 50.2812 204.539 49.75C204.977 49.2109 205.496 48.8008 206.098 48.5195C206.707 48.2305 207.387 48.0859 208.137 48.0859C208.73 48.0859 209.273 48.1719 209.766 48.3438C210.258 48.5156 210.68 48.7891 211.031 49.1641C211.391 49.5391 211.664 50.0352 211.852 50.6523C212.047 51.2695 212.145 52.0234 212.145 52.9141V61H208.746V52.9023C208.746 52.3398 208.668 51.9023 208.512 51.5898C208.355 51.2773 208.125 51.0586 207.82 50.9336C207.523 50.8008 207.156 50.7344 206.719 50.7344C206.266 50.7344 205.871 50.8242 205.535 51.0039C205.207 51.1836 204.934 51.4336 204.715 51.7539C204.504 52.0664 204.344 52.4336 204.234 52.8555C204.125 53.2773 204.07 53.7305 204.07 54.2148ZM219.949 58.5977C220.363 58.5977 220.73 58.5195 221.051 58.3633C221.371 58.1992 221.621 57.9727 221.801 57.6836C221.988 57.3867 222.086 57.0391 222.094 56.6406H225.27C225.262 57.5312 225.023 58.3242 224.555 59.0195C224.086 59.707 223.457 60.25 222.668 60.6484C221.879 61.0391 220.996 61.2344 220.02 61.2344C219.035 61.2344 218.176 61.0703 217.441 60.7422C216.715 60.4141 216.109 59.9609 215.625 59.3828C215.141 58.7969 214.777 58.1172 214.535 57.3438C214.293 56.5625 214.172 55.7266 214.172 54.8359V54.4961C214.172 53.5977 214.293 52.7617 214.535 51.9883C214.777 51.207 215.141 50.5273 215.625 49.9492C216.109 49.3633 216.715 48.9062 217.441 48.5781C218.168 48.25 219.02 48.0859 219.996 48.0859C221.035 48.0859 221.945 48.2852 222.727 48.6836C223.516 49.082 224.133 49.6523 224.578 50.3945C225.031 51.1289 225.262 52 225.27 53.0078H222.094C222.086 52.5859 221.996 52.2031 221.824 51.8594C221.66 51.5156 221.418 51.2422 221.098 51.0391C220.785 50.8281 220.398 50.7227 219.938 50.7227C219.445 50.7227 219.043 50.8281 218.73 51.0391C218.418 51.2422 218.176 51.5234 218.004 51.8828C217.832 52.2344 217.711 52.6367 217.641 53.0898C217.578 53.5352 217.547 54.0039 217.547 54.4961V54.8359C217.547 55.3281 217.578 55.8008 217.641 56.2539C217.703 56.707 217.82 57.1094 217.992 57.4609C218.172 57.8125 218.418 58.0898 218.73 58.293C219.043 58.4961 219.449 58.5977 219.949 58.5977ZM233.438 48.3203V50.7109H226.055V48.3203H233.438ZM227.883 45.1914H231.258V57.1797C231.258 57.5469 231.305 57.8281 231.398 58.0234C231.5 58.2188 231.648 58.3555 231.844 58.4336C232.039 58.5039 232.285 58.5391 232.582 58.5391C232.793 58.5391 232.98 58.5312 233.145 58.5156C233.316 58.4922 233.461 58.4688 233.578 58.4453L233.59 60.9297C233.301 61.0234 232.988 61.0977 232.652 61.1523C232.316 61.207 231.945 61.2344 231.539 61.2344C230.797 61.2344 230.148 61.1133 229.594 60.8711C229.047 60.6211 228.625 60.2227 228.328 59.6758C228.031 59.1289 227.883 58.4102 227.883 57.5195V45.1914ZM238.922 48.3203V61H235.535V48.3203H238.922ZM235.324 45.0156C235.324 44.5234 235.496 44.1172 235.84 43.7969C236.184 43.4766 236.645 43.3164 237.223 43.3164C237.793 43.3164 238.25 43.4766 238.594 43.7969C238.945 44.1172 239.121 44.5234 239.121 45.0156C239.121 45.5078 238.945 45.9141 238.594 46.2344C238.25 46.5547 237.793 46.7148 237.223 46.7148C236.645 46.7148 236.184 46.5547 235.84 46.2344C235.496 45.9141 235.324 45.5078 235.324 45.0156ZM241.172 54.7891V54.543C241.172 53.6133 241.305 52.7578 241.57 51.9766C241.836 51.1875 242.223 50.5039 242.73 49.9258C243.238 49.3477 243.863 48.8984 244.605 48.5781C245.348 48.25 246.199 48.0859 247.16 48.0859C248.121 48.0859 248.977 48.25 249.727 48.5781C250.477 48.8984 251.105 49.3477 251.613 49.9258C252.129 50.5039 252.52 51.1875 252.785 51.9766C253.051 52.7578 253.184 53.6133 253.184 54.543V54.7891C253.184 55.7109 253.051 56.5664 252.785 57.3555C252.52 58.1367 252.129 58.8203 251.613 59.4062C251.105 59.9844 250.48 60.4336 249.738 60.7539C248.996 61.0742 248.145 61.2344 247.184 61.2344C246.223 61.2344 245.367 61.0742 244.617 60.7539C243.875 60.4336 243.246 59.9844 242.73 59.4062C242.223 58.8203 241.836 58.1367 241.57 57.3555C241.305 56.5664 241.172 55.7109 241.172 54.7891ZM244.547 54.543V54.7891C244.547 55.3203 244.594 55.8164 244.688 56.2773C244.781 56.7383 244.93 57.1445 245.133 57.4961C245.344 57.8398 245.617 58.1094 245.953 58.3047C246.289 58.5 246.699 58.5977 247.184 58.5977C247.652 58.5977 248.055 58.5 248.391 58.3047C248.727 58.1094 248.996 57.8398 249.199 57.4961C249.402 57.1445 249.551 56.7383 249.645 56.2773C249.746 55.8164 249.797 55.3203 249.797 54.7891V54.543C249.797 54.0273 249.746 53.543 249.645 53.0898C249.551 52.6289 249.398 52.2227 249.188 51.8711C248.984 51.5117 248.715 51.2305 248.379 51.0273C248.043 50.8242 247.637 50.7227 247.16 50.7227C246.684 50.7227 246.277 50.8242 245.941 51.0273C245.613 51.2305 245.344 51.5117 245.133 51.8711C244.93 52.2227 244.781 52.6289 244.688 53.0898C244.594 53.543 244.547 54.0273 244.547 54.543ZM258.562 51.0273V61H255.188V48.3203H258.352L258.562 51.0273ZM258.07 54.2148H257.156C257.156 53.2773 257.277 52.4336 257.52 51.6836C257.762 50.9258 258.102 50.2812 258.539 49.75C258.977 49.2109 259.496 48.8008 260.098 48.5195C260.707 48.2305 261.387 48.0859 262.137 48.0859C262.73 48.0859 263.273 48.1719 263.766 48.3438C264.258 48.5156 264.68 48.7891 265.031 49.1641C265.391 49.5391 265.664 50.0352 265.852 50.6523C266.047 51.2695 266.145 52.0234 266.145 52.9141V61H262.746V52.9023C262.746 52.3398 262.668 51.9023 262.512 51.5898C262.355 51.2773 262.125 51.0586 261.82 50.9336C261.523 50.8008 261.156 50.7344 260.719 50.7344C260.266 50.7344 259.871 50.8242 259.535 51.0039C259.207 51.1836 258.934 51.4336 258.715 51.7539C258.504 52.0664 258.344 52.4336 258.234 52.8555C258.125 53.2773 258.07 53.7305 258.07 54.2148Z" fill="#888888"/>
<path d="M104.344 84.875V119H96.1406V84.875H104.344ZM117.727 99.0078V119H109.828V93.6406H117.234L117.727 99.0078ZM116.766 105.453L114.961 105.5C114.961 103.719 115.172 102.078 115.594 100.578C116.016 99.0781 116.641 97.7734 117.469 96.6641C118.297 95.5547 119.312 94.6953 120.516 94.0859C121.734 93.4766 123.141 93.1719 124.734 93.1719C125.844 93.1719 126.852 93.3438 127.758 93.6875C128.664 94.0156 129.445 94.5391 130.102 95.2578C130.758 95.9609 131.258 96.8828 131.602 98.0234C131.961 99.1484 132.141 100.5 132.141 102.078V119H124.242V103.086C124.242 102.008 124.117 101.195 123.867 100.648C123.633 100.102 123.289 99.7344 122.836 99.5469C122.383 99.3594 121.828 99.2656 121.172 99.2656C120.484 99.2656 119.867 99.4219 119.32 99.7344C118.773 100.047 118.305 100.484 117.914 101.047C117.539 101.594 117.25 102.242 117.047 102.992C116.859 103.742 116.766 104.562 116.766 105.453ZM131.25 105.453L129.047 105.5C129.047 103.719 129.242 102.078 129.633 100.578C130.039 99.0781 130.641 97.7734 131.438 96.6641C132.25 95.5547 133.258 94.6953 134.461 94.0859C135.664 93.4766 137.062 93.1719 138.656 93.1719C139.812 93.1719 140.875 93.3438 141.844 93.6875C142.812 94.0312 143.648 94.5859 144.352 95.3516C145.055 96.1172 145.602 97.1328 145.992 98.3984C146.383 99.6484 146.578 101.195 146.578 103.039V119H138.656V103.039C138.656 101.992 138.531 101.203 138.281 100.672C138.047 100.125 137.703 99.7578 137.25 99.5703C136.797 99.3672 136.258 99.2656 135.633 99.2656C134.883 99.2656 134.234 99.4219 133.688 99.7344C133.141 100.047 132.68 100.484 132.305 101.047C131.945 101.594 131.68 102.242 131.508 102.992C131.336 103.742 131.25 104.562 131.25 105.453ZM159.07 98.5156V128.75H151.172V93.6406H158.531L159.07 98.5156ZM174.633 106.016V106.508C174.633 108.352 174.422 110.062 174 111.641C173.578 113.219 172.953 114.594 172.125 115.766C171.297 116.938 170.266 117.852 169.031 118.508C167.812 119.148 166.398 119.469 164.789 119.469C163.273 119.469 161.969 119.133 160.875 118.461C159.781 117.789 158.867 116.859 158.133 115.672C157.398 114.484 156.805 113.125 156.352 111.594C155.898 110.062 155.539 108.445 155.273 106.742V106.109C155.539 104.281 155.898 102.586 156.352 101.023C156.805 99.4453 157.398 98.0703 158.133 96.8984C158.867 95.7266 159.773 94.8125 160.852 94.1562C161.945 93.5 163.25 93.1719 164.766 93.1719C166.375 93.1719 167.789 93.4766 169.008 94.0859C170.242 94.6953 171.273 95.5703 172.102 96.7109C172.945 97.8359 173.578 99.1875 174 100.766C174.422 102.344 174.633 104.094 174.633 106.016ZM166.734 106.508V106.016C166.734 105.031 166.664 104.133 166.523 103.32C166.383 102.492 166.156 101.773 165.844 101.164C165.547 100.555 165.148 100.086 164.648 99.7578C164.148 99.4297 163.531 99.2656 162.797 99.2656C161.953 99.2656 161.242 99.3984 160.664 99.6641C160.102 99.9141 159.648 100.305 159.305 100.836C158.977 101.352 158.742 102 158.602 102.781C158.477 103.547 158.422 104.445 158.438 105.477V107.398C158.406 108.586 158.523 109.633 158.789 110.539C159.055 111.43 159.516 112.125 160.172 112.625C160.828 113.125 161.719 113.375 162.844 113.375C163.594 113.375 164.219 113.203 164.719 112.859C165.219 112.5 165.617 112.008 165.914 111.383C166.211 110.742 166.422 110.008 166.547 109.18C166.672 108.352 166.734 107.461 166.734 106.508ZM186.492 83V119H178.57V83H186.492ZM203.648 119.469C201.586 119.469 199.742 119.148 198.117 118.508C196.492 117.852 195.117 116.953 193.992 115.812C192.883 114.672 192.031 113.359 191.438 111.875C190.859 110.391 190.57 108.82 190.57 107.164V106.273C190.57 104.414 190.828 102.695 191.344 101.117C191.859 99.5234 192.625 98.1328 193.641 96.9453C194.656 95.7578 195.93 94.8359 197.461 94.1797C198.992 93.5078 200.773 93.1719 202.805 93.1719C204.602 93.1719 206.211 93.4609 207.633 94.0391C209.055 94.6172 210.258 95.4453 211.242 96.5234C212.242 97.6016 213 98.9062 213.516 100.438C214.047 101.969 214.312 103.688 214.312 105.594V108.805H193.594V103.859H206.602V103.25C206.617 102.406 206.469 101.688 206.156 101.094C205.859 100.5 205.422 100.047 204.844 99.7344C204.266 99.4219 203.562 99.2656 202.734 99.2656C201.875 99.2656 201.164 99.4531 200.602 99.8281C200.055 100.203 199.625 100.719 199.312 101.375C199.016 102.016 198.805 102.758 198.68 103.602C198.555 104.445 198.492 105.336 198.492 106.273V107.164C198.492 108.102 198.617 108.953 198.867 109.719C199.133 110.484 199.508 111.141 199.992 111.688C200.492 112.219 201.086 112.633 201.773 112.93C202.477 113.227 203.273 113.375 204.164 113.375C205.242 113.375 206.305 113.172 207.352 112.766C208.398 112.359 209.297 111.688 210.047 110.75L213.633 115.016C213.117 115.75 212.383 116.461 211.43 117.148C210.492 117.836 209.367 118.398 208.055 118.836C206.742 119.258 205.273 119.469 203.648 119.469ZM225.492 99.0078V119H217.594V93.6406H225L225.492 99.0078ZM224.531 105.453L222.727 105.5C222.727 103.719 222.938 102.078 223.359 100.578C223.781 99.0781 224.406 97.7734 225.234 96.6641C226.062 95.5547 227.078 94.6953 228.281 94.0859C229.5 93.4766 230.906 93.1719 232.5 93.1719C233.609 93.1719 234.617 93.3438 235.523 93.6875C236.43 94.0156 237.211 94.5391 237.867 95.2578C238.523 95.9609 239.023 96.8828 239.367 98.0234C239.727 99.1484 239.906 100.5 239.906 102.078V119H232.008V103.086C232.008 102.008 231.883 101.195 231.633 100.648C231.398 100.102 231.055 99.7344 230.602 99.5469C230.148 99.3594 229.594 99.2656 228.938 99.2656C228.25 99.2656 227.633 99.4219 227.086 99.7344C226.539 100.047 226.07 100.484 225.68 101.047C225.305 101.594 225.016 102.242 224.812 102.992C224.625 103.742 224.531 104.562 224.531 105.453ZM239.016 105.453L236.812 105.5C236.812 103.719 237.008 102.078 237.398 100.578C237.805 99.0781 238.406 97.7734 239.203 96.6641C240.016 95.5547 241.023 94.6953 242.227 94.0859C243.43 93.4766 244.828 93.1719 246.422 93.1719C247.578 93.1719 248.641 93.3438 249.609 93.6875C250.578 94.0312 251.414 94.5859 252.117 95.3516C252.82 96.1172 253.367 97.1328 253.758 98.3984C254.148 99.6484 254.344 101.195 254.344 103.039V119H246.422V103.039C246.422 101.992 246.297 101.203 246.047 100.672C245.812 100.125 245.469 99.7578 245.016 99.5703C244.562 99.3672 244.023 99.2656 243.398 99.2656C242.648 99.2656 242 99.4219 241.453 99.7344C240.906 100.047 240.445 100.484 240.07 101.047C239.711 101.594 239.445 102.242 239.273 102.992C239.102 103.742 239.016 104.562 239.016 105.453ZM271.148 119.469C269.086 119.469 267.242 119.148 265.617 118.508C263.992 117.852 262.617 116.953 261.492 115.812C260.383 114.672 259.531 113.359 258.938 111.875C258.359 110.391 258.07 108.82 258.07 107.164V106.273C258.07 104.414 258.328 102.695 258.844 101.117C259.359 99.5234 260.125 98.1328 261.141 96.9453C262.156 95.7578 263.43 94.8359 264.961 94.1797C266.492 93.5078 268.273 93.1719 270.305 93.1719C272.102 93.1719 273.711 93.4609 275.133 94.0391C276.555 94.6172 277.758 95.4453 278.742 96.5234C279.742 97.6016 280.5 98.9062 281.016 100.438C281.547 101.969 281.812 103.688 281.812 105.594V108.805H261.094V103.859H274.102V103.25C274.117 102.406 273.969 101.688 273.656 101.094C273.359 100.5 272.922 100.047 272.344 99.7344C271.766 99.4219 271.062 99.2656 270.234 99.2656C269.375 99.2656 268.664 99.4531 268.102 99.8281C267.555 100.203 267.125 100.719 266.812 101.375C266.516 102.016 266.305 102.758 266.18 103.602C266.055 104.445 265.992 105.336 265.992 106.273V107.164C265.992 108.102 266.117 108.953 266.367 109.719C266.633 110.484 267.008 111.141 267.492 111.688C267.992 112.219 268.586 112.633 269.273 112.93C269.977 113.227 270.773 113.375 271.664 113.375C272.742 113.375 273.805 113.172 274.852 112.766C275.898 112.359 276.797 111.688 277.547 110.75L281.133 115.016C280.617 115.75 279.883 116.461 278.93 117.148C277.992 117.836 276.867 118.398 275.555 118.836C274.242 119.258 272.773 119.469 271.148 119.469ZM292.781 99.0547V119H284.883V93.6406H292.289L292.781 99.0547ZM291.844 105.453L289.992 105.5C289.992 103.562 290.227 101.836 290.695 100.32C291.164 98.7891 291.828 97.4922 292.688 96.4297C293.547 95.3672 294.57 94.5625 295.758 94.0156C296.961 93.4531 298.297 93.1719 299.766 93.1719C300.938 93.1719 302.008 93.3438 302.977 93.6875C303.961 94.0312 304.805 94.5859 305.508 95.3516C306.227 96.1172 306.773 97.1328 307.148 98.3984C307.539 99.6484 307.734 101.195 307.734 103.039V119H299.789V103.016C299.789 102 299.648 101.227 299.367 100.695C299.086 100.148 298.68 99.7734 298.148 99.5703C297.617 99.3672 296.969 99.2656 296.203 99.2656C295.391 99.2656 294.703 99.4219 294.141 99.7344C293.578 100.047 293.125 100.484 292.781 101.047C292.453 101.594 292.211 102.242 292.055 102.992C291.914 103.742 291.844 104.562 291.844 105.453ZM325.477 93.6406V99.125H310.195V93.6406H325.477ZM313.406 87.3359H321.305V110.727C321.305 111.398 321.383 111.922 321.539 112.297C321.695 112.656 321.961 112.914 322.336 113.07C322.727 113.211 323.242 113.281 323.883 113.281C324.336 113.281 324.711 113.273 325.008 113.258C325.305 113.227 325.586 113.188 325.852 113.141V118.789C325.18 119.008 324.477 119.172 323.742 119.281C323.008 119.406 322.227 119.469 321.398 119.469C319.711 119.469 318.266 119.203 317.062 118.672C315.875 118.141 314.969 117.305 314.344 116.164C313.719 115.023 313.406 113.539 313.406 111.711V87.3359ZM341.789 112.625V102.172C341.789 101.453 341.688 100.836 341.484 100.32C341.281 99.8047 340.961 99.4062 340.523 99.125C340.086 98.8281 339.5 98.6797 338.766 98.6797C338.172 98.6797 337.664 98.7812 337.242 98.9844C336.82 99.1875 336.5 99.4922 336.281 99.8984C336.062 100.305 335.953 100.82 335.953 101.445H328.055C328.055 100.273 328.312 99.1875 328.828 98.1875C329.359 97.1719 330.109 96.2891 331.078 95.5391C332.062 94.7891 333.234 94.2109 334.594 93.8047C335.969 93.3828 337.5 93.1719 339.188 93.1719C341.203 93.1719 343 93.5078 344.578 94.1797C346.172 94.8516 347.43 95.8594 348.352 97.2031C349.273 98.5312 349.734 100.203 349.734 102.219V112.602C349.734 114.258 349.828 115.516 350.016 116.375C350.203 117.219 350.469 117.961 350.812 118.602V119H342.891C342.516 118.219 342.234 117.266 342.047 116.141C341.875 115 341.789 113.828 341.789 112.625ZM342.75 103.508L342.797 107.727H339.305C338.57 107.727 337.945 107.828 337.43 108.031C336.93 108.234 336.523 108.516 336.211 108.875C335.914 109.219 335.695 109.609 335.555 110.047C335.43 110.484 335.367 110.945 335.367 111.43C335.367 111.898 335.477 112.32 335.695 112.695C335.93 113.055 336.242 113.336 336.633 113.539C337.023 113.742 337.461 113.844 337.945 113.844C338.82 113.844 339.562 113.68 340.172 113.352C340.797 113.008 341.273 112.594 341.602 112.109C341.93 111.625 342.094 111.172 342.094 110.75L343.828 113.984C343.516 114.609 343.156 115.242 342.75 115.883C342.359 116.523 341.867 117.117 341.273 117.664C340.695 118.195 339.984 118.633 339.141 118.977C338.297 119.305 337.273 119.469 336.07 119.469C334.508 119.469 333.07 119.148 331.758 118.508C330.461 117.867 329.422 116.977 328.641 115.836C327.859 114.68 327.469 113.352 327.469 111.852C327.469 110.539 327.703 109.367 328.172 108.336C328.656 107.305 329.383 106.43 330.352 105.711C331.32 104.992 332.555 104.445 334.055 104.07C335.555 103.695 337.32 103.508 339.352 103.508H342.75ZM367.477 93.6406V99.125H352.195V93.6406H367.477ZM355.406 87.3359H363.305V110.727C363.305 111.398 363.383 111.922 363.539 112.297C363.695 112.656 363.961 112.914 364.336 113.07C364.727 113.211 365.242 113.281 365.883 113.281C366.336 113.281 366.711 113.273 367.008 113.258C367.305 113.227 367.586 113.188 367.852 113.141V118.789C367.18 119.008 366.477 119.172 365.742 119.281C365.008 119.406 364.227 119.469 363.398 119.469C361.711 119.469 360.266 119.203 359.062 118.672C357.875 118.141 356.969 117.305 356.344 116.164C355.719 115.023 355.406 113.539 355.406 111.711V87.3359ZM378.961 93.6406V119H371.039V93.6406H378.961ZM370.57 87.1016C370.57 85.9766 370.977 85.0547 371.789 84.3359C372.602 83.6172 373.656 83.2578 374.953 83.2578C376.25 83.2578 377.305 83.6172 378.117 84.3359C378.93 85.0547 379.336 85.9766 379.336 87.1016C379.336 88.2266 378.93 89.1484 378.117 89.8672C377.305 90.5859 376.25 90.9453 374.953 90.9453C373.656 90.9453 372.602 90.5859 371.789 89.8672C370.977 89.1484 370.57 88.2266 370.57 87.1016ZM382.852 106.578V106.086C382.852 104.227 383.117 102.516 383.648 100.953C384.18 99.375 384.961 98.0078 385.992 96.8516C387.023 95.6953 388.297 94.7969 389.812 94.1562C391.328 93.5 393.078 93.1719 395.062 93.1719C397.062 93.1719 398.82 93.5 400.336 94.1562C401.867 94.7969 403.148 95.6953 404.18 96.8516C405.211 98.0078 405.992 99.375 406.523 100.953C407.055 102.516 407.32 104.227 407.32 106.086V106.578C407.32 108.422 407.055 110.133 406.523 111.711C405.992 113.273 405.211 114.641 404.18 115.812C403.148 116.969 401.875 117.867 400.359 118.508C398.844 119.148 397.094 119.469 395.109 119.469C393.125 119.469 391.367 119.148 389.836 118.508C388.305 117.867 387.023 116.969 385.992 115.812C384.961 114.641 384.18 113.273 383.648 111.711C383.117 110.133 382.852 108.422 382.852 106.578ZM390.75 106.086V106.578C390.75 107.531 390.82 108.422 390.961 109.25C391.102 110.078 391.336 110.805 391.664 111.43C391.992 112.039 392.438 112.516 393 112.859C393.562 113.203 394.266 113.375 395.109 113.375C395.938 113.375 396.625 113.203 397.172 112.859C397.734 112.516 398.18 112.039 398.508 111.43C398.836 110.805 399.07 110.078 399.211 109.25C399.352 108.422 399.422 107.531 399.422 106.578V106.086C399.422 105.164 399.352 104.297 399.211 103.484C399.07 102.656 398.836 101.93 398.508 101.305C398.18 100.664 397.734 100.164 397.172 99.8047C396.609 99.4453 395.906 99.2656 395.062 99.2656C394.234 99.2656 393.539 99.4453 392.977 99.8047C392.43 100.164 391.992 100.664 391.664 101.305C391.336 101.93 391.102 102.656 390.961 103.484C390.82 104.297 390.75 105.164 390.75 106.086ZM418.594 99.0547V119H410.695V93.6406H418.102L418.594 99.0547ZM417.656 105.453L415.805 105.5C415.805 103.562 416.039 101.836 416.508 100.32C416.977 98.7891 417.641 97.4922 418.5 96.4297C419.359 95.3672 420.383 94.5625 421.57 94.0156C422.773 93.4531 424.109 93.1719 425.578 93.1719C426.75 93.1719 427.82 93.3438 428.789 93.6875C429.773 94.0312 430.617 94.5859 431.32 95.3516C432.039 96.1172 432.586 97.1328 432.961 98.3984C433.352 99.6484 433.547 101.195 433.547 103.039V119H425.602V103.016C425.602 102 425.461 101.227 425.18 100.695C424.898 100.148 424.492 99.7734 423.961 99.5703C423.43 99.3672 422.781 99.2656 422.016 99.2656C421.203 99.2656 420.516 99.4219 419.953 99.7344C419.391 100.047 418.938 100.484 418.594 101.047C418.266 101.594 418.023 102.242 417.867 102.992C417.727 103.742 417.656 104.562 417.656 105.453Z" fill="black"/>
<path d="M1134 0H1348C1356.28 0 1363 6.71573 1363 15V148C1363 156.284 1356.28 163 1348 163H1134V0Z" fill="#2D2254"/>
<path d="M1281 46.5H1216L1213.5 49V114L1216 116.5H1281L1283.5 114V49L1281 46.5ZM1278.5 111.5H1233.5V101.5H1245C1246.5 104.5 1250 106.5 1253.5 106.5C1259 106.5 1263.5 102 1263.5 96.5C1263.5 91 1259 86.5 1253.5 86.5C1248 86.5 1243.5 91 1243.5 96.5H1228.5V111.5H1218.5V51.5H1228.5V63C1225.5 64.5 1223.5 68 1223.5 71.5C1223.5 77 1228 81.5 1233.5 81.5C1239 81.5 1243.5 77 1243.5 71.5H1253.5C1253.5 77 1258 81.5 1263.5 81.5C1269 81.5 1273.5 77 1273.5 71.5C1273.5 66 1269 61.5 1263.5 61.5C1260 61.5 1256.5 63.5 1255 66.5H1242C1240.5 63.5 1237 61.5 1233.5 61.5V51.5H1278.5V111.5ZM1248.5 96.5C1248.5 93.5 1250.5 91.5 1253.5 91.5C1256.5 91.5 1258.5 93.5 1258.5 96.5C1258.5 99.5 1256.5 101.5 1253.5 101.5C1250.5 101.5 1248.5 99.5 1248.5 96.5ZM1233.5 66.5C1236.5 66.5 1238.5 68.5 1238.5 71.5C1238.5 74.5 1236.5 76.5 1233.5 76.5C1230.5 76.5 1228.5 74.5 1228.5 71.5C1228.5 68.5 1230.5 66.5 1233.5 66.5ZM1263.5 66.5C1266.5 66.5 1268.5 68.5 1268.5 71.5C1268.5 74.5 1266.5 76.5 1263.5 76.5C1260.5 76.5 1258.5 74.5 1258.5 71.5C1258.5 68.5 1260.5 66.5 1263.5 66.5Z" fill="white"/>
</svg>
