<svg width="1363" height="163" viewBox="0 0 1363 163" fill="none" xmlns="http://www.w3.org/2000/svg">
<path d="M0 15C0 6.71573 6.71573 0 15 0H37V163H15C6.71573 163 0 156.284 0 148V15Z" fill="#2D2254"/>
<rect width="1097" height="163" transform="translate(37)" fill="#F0F0F0"/>
<path d="M101.906 53.9219L94.3945 51.2383V48.0859L104.602 52.375V54.6367L101.906 53.9219ZM94.3945 56.1719L101.918 53.4297L104.602 52.7852V55.0352L94.3945 59.3242V56.1719ZM122.789 55.3398H126.293C126.223 56.4883 125.906 57.5078 125.344 58.3984C124.789 59.2891 124.012 59.9844 123.012 60.4844C122.02 60.9844 120.824 61.2344 119.426 61.2344C118.332 61.2344 117.352 61.0469 116.484 60.6719C115.617 60.2891 114.875 59.7422 114.258 59.0312C113.648 58.3203 113.184 57.4609 112.863 56.4531C112.543 55.4453 112.383 54.3164 112.383 53.0664V51.8828C112.383 50.6328 112.547 49.5039 112.875 48.4961C113.211 47.4805 113.688 46.6172 114.305 45.9062C114.93 45.1953 115.676 44.6484 116.543 44.2656C117.41 43.8828 118.379 43.6914 119.449 43.6914C120.871 43.6914 122.07 43.9492 123.047 44.4648C124.031 44.9805 124.793 45.6914 125.332 46.5977C125.879 47.5039 126.207 48.5352 126.316 49.6914H122.801C122.762 49.0039 122.625 48.4219 122.391 47.9453C122.156 47.4609 121.801 47.0977 121.324 46.8555C120.855 46.6055 120.23 46.4805 119.449 46.4805C118.863 46.4805 118.352 46.5898 117.914 46.8086C117.477 47.0273 117.109 47.3594 116.812 47.8047C116.516 48.25 116.293 48.8125 116.145 49.4922C116.004 50.1641 115.934 50.9531 115.934 51.8594V53.0664C115.934 53.9492 116 54.7266 116.133 55.3984C116.266 56.0625 116.469 56.625 116.742 57.0859C117.023 57.5391 117.383 57.8828 117.82 58.1172C118.266 58.3438 118.801 58.457 119.426 58.457C120.16 58.457 120.766 58.3398 121.242 58.1055C121.719 57.8711 122.082 57.5234 122.332 57.0625C122.59 56.6016 122.742 56.0273 122.789 55.3398ZM127.852 54.7891V54.543C127.852 53.6133 127.984 52.7578 128.25 51.9766C128.516 51.1875 128.902 50.5039 129.41 49.9258C129.918 49.3477 130.543 48.8984 131.285 48.5781C132.027 48.25 132.879 48.0859 133.84 48.0859C134.801 48.0859 135.656 48.25 136.406 48.5781C137.156 48.8984 137.785 49.3477 138.293 49.9258C138.809 50.5039 139.199 51.1875 139.465 51.9766C139.73 52.7578 139.863 53.6133 139.863 54.543V54.7891C139.863 55.7109 139.73 56.5664 139.465 57.3555C139.199 58.1367 138.809 58.8203 138.293 59.4062C137.785 59.9844 137.16 60.4336 136.418 60.7539C135.676 61.0742 134.824 61.2344 133.863 61.2344C132.902 61.2344 132.047 61.0742 131.297 60.7539C130.555 60.4336 129.926 59.9844 129.41 59.4062C128.902 58.8203 128.516 58.1367 128.25 57.3555C127.984 56.5664 127.852 55.7109 127.852 54.7891ZM131.227 54.543V54.7891C131.227 55.3203 131.273 55.8164 131.367 56.2773C131.461 56.7383 131.609 57.1445 131.812 57.4961C132.023 57.8398 132.297 58.1094 132.633 58.3047C132.969 58.5 133.379 58.5977 133.863 58.5977C134.332 58.5977 134.734 58.5 135.07 58.3047C135.406 58.1094 135.676 57.8398 135.879 57.4961C136.082 57.1445 136.23 56.7383 136.324 56.2773C136.426 55.8164 136.477 55.3203 136.477 54.7891V54.543C136.477 54.0273 136.426 53.543 136.324 53.0898C136.23 52.6289 136.078 52.2227 135.867 51.8711C135.664 51.5117 135.395 51.2305 135.059 51.0273C134.723 50.8242 134.316 50.7227 133.84 50.7227C133.363 50.7227 132.957 50.8242 132.621 51.0273C132.293 51.2305 132.023 51.5117 131.812 51.8711C131.609 52.2227 131.461 52.6289 131.367 53.0898C131.273 53.543 131.227 54.0273 131.227 54.543ZM149.426 58.2344V43H152.824V61H149.766L149.426 58.2344ZM141.41 54.8125V54.5664C141.41 53.5977 141.52 52.7188 141.738 51.9297C141.957 51.1328 142.277 50.4492 142.699 49.8789C143.121 49.3086 143.641 48.8672 144.258 48.5547C144.875 48.2422 145.578 48.0859 146.367 48.0859C147.109 48.0859 147.758 48.2422 148.312 48.5547C148.875 48.8672 149.352 49.3125 149.742 49.8906C150.141 50.4609 150.461 51.1367 150.703 51.918C150.945 52.6914 151.121 53.5391 151.23 54.4609V55C151.121 55.8828 150.945 56.7031 150.703 57.4609C150.461 58.2188 150.141 58.8828 149.742 59.4531C149.352 60.0156 148.875 60.4531 148.312 60.7656C147.75 61.0781 147.094 61.2344 146.344 61.2344C145.555 61.2344 144.852 61.0742 144.234 60.7539C143.625 60.4336 143.109 59.9844 142.688 59.4062C142.273 58.8281 141.957 58.1484 141.738 57.3672C141.52 56.5859 141.41 55.7344 141.41 54.8125ZM144.785 54.5664V54.8125C144.785 55.3359 144.824 55.8242 144.902 56.2773C144.988 56.7305 145.125 57.1328 145.312 57.4844C145.508 57.8281 145.758 58.0977 146.062 58.293C146.375 58.4805 146.754 58.5742 147.199 58.5742C147.777 58.5742 148.254 58.4453 148.629 58.1875C149.004 57.9219 149.289 57.5586 149.484 57.0977C149.688 56.6367 149.805 56.1055 149.836 55.5039V53.9688C149.812 53.4766 149.742 53.0352 149.625 52.6445C149.516 52.2461 149.352 51.9062 149.133 51.625C148.922 51.3438 148.656 51.125 148.336 50.9688C148.023 50.8125 147.652 50.7344 147.223 50.7344C146.785 50.7344 146.41 50.8359 146.098 51.0391C145.785 51.2344 145.531 51.5039 145.336 51.8477C145.148 52.1914 145.008 52.5977 144.914 53.0664C144.828 53.5273 144.785 54.0273 144.785 54.5664ZM161.297 61.2344C160.312 61.2344 159.43 61.0781 158.648 60.7656C157.867 60.4453 157.203 60.0039 156.656 59.4414C156.117 58.8789 155.703 58.2266 155.414 57.4844C155.125 56.7344 154.98 55.9375 154.98 55.0938V54.625C154.98 53.6641 155.117 52.7852 155.391 51.9883C155.664 51.1914 156.055 50.5 156.562 49.9141C157.078 49.3281 157.703 48.8789 158.438 48.5664C159.172 48.2461 160 48.0859 160.922 48.0859C161.82 48.0859 162.617 48.2344 163.312 48.5312C164.008 48.8281 164.59 49.25 165.059 49.7969C165.535 50.3438 165.895 51 166.137 51.7656C166.379 52.5234 166.5 53.3672 166.5 54.2969V55.7031H156.422V53.4531H163.184V53.1953C163.184 52.7266 163.098 52.3086 162.926 51.9414C162.762 51.5664 162.512 51.2695 162.176 51.0508C161.84 50.832 161.41 50.7227 160.887 50.7227C160.441 50.7227 160.059 50.8203 159.738 51.0156C159.418 51.2109 159.156 51.4844 158.953 51.8359C158.758 52.1875 158.609 52.6016 158.508 53.0781C158.414 53.5469 158.367 54.0625 158.367 54.625V55.0938C158.367 55.6016 158.438 56.0703 158.578 56.5C158.727 56.9297 158.934 57.3008 159.199 57.6133C159.473 57.9258 159.801 58.168 160.184 58.3398C160.574 58.5117 161.016 58.5977 161.508 58.5977C162.117 58.5977 162.684 58.4805 163.207 58.2461C163.738 58.0039 164.195 57.6406 164.578 57.1562L166.219 58.9375C165.953 59.3203 165.59 59.6875 165.129 60.0391C164.676 60.3906 164.129 60.6797 163.488 60.9062C162.848 61.125 162.117 61.2344 161.297 61.2344ZM181.512 55.7617V43.9375H185.016V55.7617C185.016 56.9023 184.766 57.8828 184.266 58.7031C183.766 59.5156 183.082 60.1406 182.215 60.5781C181.355 61.0156 180.387 61.2344 179.309 61.2344C178.191 61.2344 177.203 61.0469 176.344 60.6719C175.484 60.2969 174.809 59.7227 174.316 58.9492C173.824 58.168 173.578 57.1797 173.578 55.9844H177.105C177.105 56.6094 177.191 57.1055 177.363 57.4727C177.543 57.8398 177.797 58.1016 178.125 58.2578C178.453 58.4141 178.848 58.4922 179.309 58.4922C179.754 58.4922 180.141 58.3867 180.469 58.1758C180.797 57.9648 181.051 57.6562 181.23 57.25C181.418 56.8438 181.512 56.3477 181.512 55.7617ZM195.305 57.9648V48.3203H198.68V61H195.504L195.305 57.9648ZM195.68 55.3633L196.676 55.3398C196.676 56.1836 196.578 56.9688 196.383 57.6953C196.188 58.4141 195.895 59.0391 195.504 59.5703C195.113 60.0938 194.621 60.5039 194.027 60.8008C193.434 61.0898 192.734 61.2344 191.93 61.2344C191.312 61.2344 190.742 61.1484 190.219 60.9766C189.703 60.7969 189.258 60.5195 188.883 60.1445C188.516 59.7617 188.227 59.2734 188.016 58.6797C187.812 58.0781 187.711 57.3555 187.711 56.5117V48.3203H191.086V56.5352C191.086 56.9102 191.129 57.2266 191.215 57.4844C191.309 57.7422 191.438 57.9531 191.602 58.1172C191.766 58.2812 191.957 58.3984 192.176 58.4688C192.402 58.5391 192.652 58.5742 192.926 58.5742C193.621 58.5742 194.168 58.4336 194.566 58.1523C194.973 57.8711 195.258 57.4883 195.422 57.0039C195.594 56.5117 195.68 55.9648 195.68 55.3633ZM204.562 51.0273V61H201.188V48.3203H204.352L204.562 51.0273ZM204.07 54.2148H203.156C203.156 53.2773 203.277 52.4336 203.52 51.6836C203.762 50.9258 204.102 50.2812 204.539 49.75C204.977 49.2109 205.496 48.8008 206.098 48.5195C206.707 48.2305 207.387 48.0859 208.137 48.0859C208.73 48.0859 209.273 48.1719 209.766 48.3438C210.258 48.5156 210.68 48.7891 211.031 49.1641C211.391 49.5391 211.664 50.0352 211.852 50.6523C212.047 51.2695 212.145 52.0234 212.145 52.9141V61H208.746V52.9023C208.746 52.3398 208.668 51.9023 208.512 51.5898C208.355 51.2773 208.125 51.0586 207.82 50.9336C207.523 50.8008 207.156 50.7344 206.719 50.7344C206.266 50.7344 205.871 50.8242 205.535 51.0039C205.207 51.1836 204.934 51.4336 204.715 51.7539C204.504 52.0664 204.344 52.4336 204.234 52.8555C204.125 53.2773 204.07 53.7305 204.07 54.2148ZM219.949 58.5977C220.363 58.5977 220.73 58.5195 221.051 58.3633C221.371 58.1992 221.621 57.9727 221.801 57.6836C221.988 57.3867 222.086 57.0391 222.094 56.6406H225.27C225.262 57.5312 225.023 58.3242 224.555 59.0195C224.086 59.707 223.457 60.25 222.668 60.6484C221.879 61.0391 220.996 61.2344 220.02 61.2344C219.035 61.2344 218.176 61.0703 217.441 60.7422C216.715 60.4141 216.109 59.9609 215.625 59.3828C215.141 58.7969 214.777 58.1172 214.535 57.3438C214.293 56.5625 214.172 55.7266 214.172 54.8359V54.4961C214.172 53.5977 214.293 52.7617 214.535 51.9883C214.777 51.207 215.141 50.5273 215.625 49.9492C216.109 49.3633 216.715 48.9062 217.441 48.5781C218.168 48.25 219.02 48.0859 219.996 48.0859C221.035 48.0859 221.945 48.2852 222.727 48.6836C223.516 49.082 224.133 49.6523 224.578 50.3945C225.031 51.1289 225.262 52 225.27 53.0078H222.094C222.086 52.5859 221.996 52.2031 221.824 51.8594C221.66 51.5156 221.418 51.2422 221.098 51.0391C220.785 50.8281 220.398 50.7227 219.938 50.7227C219.445 50.7227 219.043 50.8281 218.73 51.0391C218.418 51.2422 218.176 51.5234 218.004 51.8828C217.832 52.2344 217.711 52.6367 217.641 53.0898C217.578 53.5352 217.547 54.0039 217.547 54.4961V54.8359C217.547 55.3281 217.578 55.8008 217.641 56.2539C217.703 56.707 217.82 57.1094 217.992 57.4609C218.172 57.8125 218.418 58.0898 218.73 58.293C219.043 58.4961 219.449 58.5977 219.949 58.5977ZM233.438 48.3203V50.7109H226.055V48.3203H233.438ZM227.883 45.1914H231.258V57.1797C231.258 57.5469 231.305 57.8281 231.398 58.0234C231.5 58.2188 231.648 58.3555 231.844 58.4336C232.039 58.5039 232.285 58.5391 232.582 58.5391C232.793 58.5391 232.98 58.5312 233.145 58.5156C233.316 58.4922 233.461 58.4688 233.578 58.4453L233.59 60.9297C233.301 61.0234 232.988 61.0977 232.652 61.1523C232.316 61.207 231.945 61.2344 231.539 61.2344C230.797 61.2344 230.148 61.1133 229.594 60.8711C229.047 60.6211 228.625 60.2227 228.328 59.6758C228.031 59.1289 227.883 58.4102 227.883 57.5195V45.1914ZM238.922 48.3203V61H235.535V48.3203H238.922ZM235.324 45.0156C235.324 44.5234 235.496 44.1172 235.84 43.7969C236.184 43.4766 236.645 43.3164 237.223 43.3164C237.793 43.3164 238.25 43.4766 238.594 43.7969C238.945 44.1172 239.121 44.5234 239.121 45.0156C239.121 45.5078 238.945 45.9141 238.594 46.2344C238.25 46.5547 237.793 46.7148 237.223 46.7148C236.645 46.7148 236.184 46.5547 235.84 46.2344C235.496 45.9141 235.324 45.5078 235.324 45.0156ZM241.172 54.7891V54.543C241.172 53.6133 241.305 52.7578 241.57 51.9766C241.836 51.1875 242.223 50.5039 242.73 49.9258C243.238 49.3477 243.863 48.8984 244.605 48.5781C245.348 48.25 246.199 48.0859 247.16 48.0859C248.121 48.0859 248.977 48.25 249.727 48.5781C250.477 48.8984 251.105 49.3477 251.613 49.9258C252.129 50.5039 252.52 51.1875 252.785 51.9766C253.051 52.7578 253.184 53.6133 253.184 54.543V54.7891C253.184 55.7109 253.051 56.5664 252.785 57.3555C252.52 58.1367 252.129 58.8203 251.613 59.4062C251.105 59.9844 250.48 60.4336 249.738 60.7539C248.996 61.0742 248.145 61.2344 247.184 61.2344C246.223 61.2344 245.367 61.0742 244.617 60.7539C243.875 60.4336 243.246 59.9844 242.73 59.4062C242.223 58.8203 241.836 58.1367 241.57 57.3555C241.305 56.5664 241.172 55.7109 241.172 54.7891ZM244.547 54.543V54.7891C244.547 55.3203 244.594 55.8164 244.688 56.2773C244.781 56.7383 244.93 57.1445 245.133 57.4961C245.344 57.8398 245.617 58.1094 245.953 58.3047C246.289 58.5 246.699 58.5977 247.184 58.5977C247.652 58.5977 248.055 58.5 248.391 58.3047C248.727 58.1094 248.996 57.8398 249.199 57.4961C249.402 57.1445 249.551 56.7383 249.645 56.2773C249.746 55.8164 249.797 55.3203 249.797 54.7891V54.543C249.797 54.0273 249.746 53.543 249.645 53.0898C249.551 52.6289 249.398 52.2227 249.188 51.8711C248.984 51.5117 248.715 51.2305 248.379 51.0273C248.043 50.8242 247.637 50.7227 247.16 50.7227C246.684 50.7227 246.277 50.8242 245.941 51.0273C245.613 51.2305 245.344 51.5117 245.133 51.8711C244.93 52.2227 244.781 52.6289 244.688 53.0898C244.594 53.543 244.547 54.0273 244.547 54.543ZM258.562 51.0273V61H255.188V48.3203H258.352L258.562 51.0273ZM258.07 54.2148H257.156C257.156 53.2773 257.277 52.4336 257.52 51.6836C257.762 50.9258 258.102 50.2812 258.539 49.75C258.977 49.2109 259.496 48.8008 260.098 48.5195C260.707 48.2305 261.387 48.0859 262.137 48.0859C262.73 48.0859 263.273 48.1719 263.766 48.3438C264.258 48.5156 264.68 48.7891 265.031 49.1641C265.391 49.5391 265.664 50.0352 265.852 50.6523C266.047 51.2695 266.145 52.0234 266.145 52.9141V61H262.746V52.9023C262.746 52.3398 262.668 51.9023 262.512 51.5898C262.355 51.2773 262.125 51.0586 261.82 50.9336C261.523 50.8008 261.156 50.7344 260.719 50.7344C260.266 50.7344 259.871 50.8242 259.535 51.0039C259.207 51.1836 258.934 51.4336 258.715 51.7539C258.504 52.0664 258.344 52.4336 258.234 52.8555C258.125 53.2773 258.07 53.7305 258.07 54.2148Z" fill="#888888"/>
<path d="M118.594 98.4219V104.75H101.086V98.4219H118.594ZM103.828 84.875V119H95.6016V84.875H103.828ZM124.125 84.875V119H115.922V84.875H124.125ZM127.992 106.578V106.086C127.992 104.227 128.258 102.516 128.789 100.953C129.32 99.375 130.102 98.0078 131.133 96.8516C132.164 95.6953 133.438 94.7969 134.953 94.1562C136.469 93.5 138.219 93.1719 140.203 93.1719C142.203 93.1719 143.961 93.5 145.477 94.1562C147.008 94.7969 148.289 95.6953 149.32 96.8516C150.352 98.0078 151.133 99.375 151.664 100.953C152.195 102.516 152.461 104.227 152.461 106.086V106.578C152.461 108.422 152.195 110.133 151.664 111.711C151.133 113.273 150.352 114.641 149.32 115.812C148.289 116.969 147.016 117.867 145.5 118.508C143.984 119.148 142.234 119.469 140.25 119.469C138.266 119.469 136.508 119.148 134.977 118.508C133.445 117.867 132.164 116.969 131.133 115.812C130.102 114.641 129.32 113.273 128.789 111.711C128.258 110.133 127.992 108.422 127.992 106.578ZM135.891 106.086V106.578C135.891 107.531 135.961 108.422 136.102 109.25C136.242 110.078 136.477 110.805 136.805 111.43C137.133 112.039 137.578 112.516 138.141 112.859C138.703 113.203 139.406 113.375 140.25 113.375C141.078 113.375 141.766 113.203 142.312 112.859C142.875 112.516 143.32 112.039 143.648 111.43C143.977 110.805 144.211 110.078 144.352 109.25C144.492 108.422 144.562 107.531 144.562 106.578V106.086C144.562 105.164 144.492 104.297 144.352 103.484C144.211 102.656 143.977 101.93 143.648 101.305C143.32 100.664 142.875 100.164 142.312 99.8047C141.75 99.4453 141.047 99.2656 140.203 99.2656C139.375 99.2656 138.68 99.4453 138.117 99.8047C137.57 100.164 137.133 100.664 136.805 101.305C136.477 101.93 136.242 102.656 136.102 103.484C135.961 104.297 135.891 105.164 135.891 106.086ZM163.688 111.453L168.375 93.6406H173.32L171.562 102.57L166.922 119H162.961L163.688 111.453ZM161.836 93.6406L164.742 111.312L165.07 119H160.266L154.266 93.6406H161.836ZM177.492 110.938L180.422 93.6406H187.992L182.039 119H177.234L177.492 110.938ZM173.883 93.6406L178.617 111.406L179.344 119H175.336L170.789 102.617L169.102 93.6406H173.883ZM218.297 84.875V119H210.07V84.875H218.297ZM228.562 84.875V91.2266H200.039V84.875H228.562ZM225.773 106.578V106.086C225.773 104.227 226.039 102.516 226.57 100.953C227.102 99.375 227.883 98.0078 228.914 96.8516C229.945 95.6953 231.219 94.7969 232.734 94.1562C234.25 93.5 236 93.1719 237.984 93.1719C239.984 93.1719 241.742 93.5 243.258 94.1562C244.789 94.7969 246.07 95.6953 247.102 96.8516C248.133 98.0078 248.914 99.375 249.445 100.953C249.977 102.516 250.242 104.227 250.242 106.086V106.578C250.242 108.422 249.977 110.133 249.445 111.711C248.914 113.273 248.133 114.641 247.102 115.812C246.07 116.969 244.797 117.867 243.281 118.508C241.766 119.148 240.016 119.469 238.031 119.469C236.047 119.469 234.289 119.148 232.758 118.508C231.227 117.867 229.945 116.969 228.914 115.812C227.883 114.641 227.102 113.273 226.57 111.711C226.039 110.133 225.773 108.422 225.773 106.578ZM233.672 106.086V106.578C233.672 107.531 233.742 108.422 233.883 109.25C234.023 110.078 234.258 110.805 234.586 111.43C234.914 112.039 235.359 112.516 235.922 112.859C236.484 113.203 237.188 113.375 238.031 113.375C238.859 113.375 239.547 113.203 240.094 112.859C240.656 112.516 241.102 112.039 241.43 111.43C241.758 110.805 241.992 110.078 242.133 109.25C242.273 108.422 242.344 107.531 242.344 106.578V106.086C242.344 105.164 242.273 104.297 242.133 103.484C241.992 102.656 241.758 101.93 241.43 101.305C241.102 100.664 240.656 100.164 240.094 99.8047C239.531 99.4453 238.828 99.2656 237.984 99.2656C237.156 99.2656 236.461 99.4453 235.898 99.8047C235.352 100.164 234.914 100.664 234.586 101.305C234.258 101.93 234.023 102.656 233.883 103.484C233.742 104.297 233.672 105.164 233.672 106.086ZM266.086 84.875H279.516C282.141 84.875 284.422 85.2656 286.359 86.0469C288.297 86.8281 289.789 87.9844 290.836 89.5156C291.898 91.0469 292.43 92.9375 292.43 95.1875C292.43 97.1406 292.125 98.7734 291.516 100.086C290.906 101.398 290.055 102.484 288.961 103.344C287.883 104.188 286.625 104.883 285.188 105.43L282.492 106.953H271.219L271.172 100.602H279.516C280.562 100.602 281.43 100.414 282.117 100.039C282.805 99.6641 283.32 99.1328 283.664 98.4453C284.023 97.7422 284.203 96.9062 284.203 95.9375C284.203 94.9531 284.023 94.1094 283.664 93.4062C283.305 92.7031 282.773 92.1641 282.07 91.7891C281.383 91.4141 280.531 91.2266 279.516 91.2266H274.312V119H266.086V84.875ZM284.766 119L277.219 103.906L285.938 103.859L293.578 118.648V119H284.766ZM311.836 112.836V93.6406H319.758V119H312.352L311.836 112.836ZM312.586 107.68L314.648 107.633C314.648 109.336 314.445 110.914 314.039 112.367C313.633 113.805 313.031 115.055 312.234 116.117C311.453 117.18 310.484 118.008 309.328 118.602C308.188 119.18 306.867 119.469 305.367 119.469C304.117 119.469 302.969 119.297 301.922 118.953C300.891 118.594 300 118.039 299.25 117.289C298.5 116.523 297.914 115.547 297.492 114.359C297.086 113.156 296.883 111.719 296.883 110.047V93.6406H304.781V110.094C304.781 110.656 304.852 111.141 304.992 111.547C305.133 111.953 305.336 112.297 305.602 112.578C305.867 112.844 306.195 113.047 306.586 113.188C306.992 113.312 307.453 113.375 307.969 113.375C309.156 113.375 310.086 113.125 310.758 112.625C311.43 112.125 311.898 111.445 312.164 110.586C312.445 109.727 312.586 108.758 312.586 107.68ZM331.875 99.0547V119H323.977V93.6406H331.383L331.875 99.0547ZM330.938 105.453L329.086 105.5C329.086 103.562 329.32 101.836 329.789 100.32C330.258 98.7891 330.922 97.4922 331.781 96.4297C332.641 95.3672 333.664 94.5625 334.852 94.0156C336.055 93.4531 337.391 93.1719 338.859 93.1719C340.031 93.1719 341.102 93.3438 342.07 93.6875C343.055 94.0312 343.898 94.5859 344.602 95.3516C345.32 96.1172 345.867 97.1328 346.242 98.3984C346.633 99.6484 346.828 101.195 346.828 103.039V119H338.883V103.016C338.883 102 338.742 101.227 338.461 100.695C338.18 100.148 337.773 99.7734 337.242 99.5703C336.711 99.3672 336.062 99.2656 335.297 99.2656C334.484 99.2656 333.797 99.4219 333.234 99.7344C332.672 100.047 332.219 100.484 331.875 101.047C331.547 101.594 331.305 102.242 331.148 102.992C331.008 103.742 330.938 104.562 330.938 105.453ZM363.773 108.195H357.047C357.047 106.82 357.141 105.609 357.328 104.562C357.531 103.5 357.875 102.547 358.359 101.703C358.844 100.859 359.5 100.078 360.328 99.3594C361.062 98.75 361.695 98.1641 362.227 97.6016C362.758 97.0391 363.164 96.4688 363.445 95.8906C363.727 95.3125 363.867 94.6953 363.867 94.0391C363.867 93.2266 363.75 92.5625 363.516 92.0469C363.297 91.5312 362.961 91.1484 362.508 90.8984C362.07 90.6328 361.516 90.5 360.844 90.5C360.297 90.5 359.781 90.6328 359.297 90.8984C358.828 91.1641 358.445 91.5781 358.148 92.1406C357.852 92.6875 357.688 93.4141 357.656 94.3203H349.711C349.758 91.9922 350.273 90.1016 351.258 88.6484C352.258 87.1797 353.586 86.1094 355.242 85.4375C356.914 84.75 358.781 84.4062 360.844 84.4062C363.125 84.4062 365.086 84.7578 366.727 85.4609C368.367 86.1641 369.625 87.2109 370.5 88.6016C371.375 89.9766 371.812 91.6719 371.812 93.6875C371.812 95.0312 371.555 96.2031 371.039 97.2031C370.539 98.1875 369.859 99.1094 369 99.9688C368.156 100.812 367.211 101.719 366.164 102.688C365.258 103.484 364.641 104.297 364.312 105.125C363.984 105.938 363.805 106.961 363.773 108.195ZM356.086 115.32C356.086 114.195 356.492 113.258 357.305 112.508C358.117 111.742 359.172 111.359 360.469 111.359C361.766 111.359 362.82 111.742 363.633 112.508C364.445 113.258 364.852 114.195 364.852 115.32C364.852 116.445 364.445 117.391 363.633 118.156C362.82 118.906 361.766 119.281 360.469 119.281C359.172 119.281 358.117 118.906 357.305 118.156C356.492 117.391 356.086 116.445 356.086 115.32Z" fill="black"/>
<path d="M1134 0H1348C1356.28 0 1363 6.71573 1363 15V148C1363 156.284 1356.28 163 1348 163H1134V0Z" fill="#2D2254"/>
<path d="M1260.62 78.8078C1263.81 78.8078 1266.93 79.7552 1269.59 81.5302C1272.25 83.3052 1274.32 85.8281 1275.54 88.7798C1276.76 91.7315 1277.08 94.9795 1276.46 98.1131C1275.84 101.247 1274.3 104.125 1272.04 106.384C1269.78 108.643 1266.9 110.182 1263.77 110.805C1260.63 111.428 1257.39 111.108 1254.43 109.886C1251.48 108.663 1248.96 106.593 1247.18 103.936C1245.41 101.28 1244.46 98.1565 1244.46 94.9616C1244.46 90.6774 1246.16 86.5686 1249.19 83.5392C1252.22 80.5097 1256.33 78.8078 1260.62 78.8078ZM1260.62 73.4232C1256.36 73.4232 1252.19 74.6864 1248.65 77.0531C1245.11 79.4198 1242.35 82.7836 1240.72 86.7192C1239.09 90.6549 1238.66 94.9855 1239.49 99.1636C1240.32 103.342 1242.37 107.179 1245.39 110.192C1248.4 113.204 1252.24 115.255 1256.41 116.086C1260.59 116.917 1264.92 116.491 1268.86 114.861C1272.79 113.23 1276.16 110.47 1278.52 106.928C1280.89 103.386 1282.15 99.2215 1282.15 94.9616C1282.15 89.2493 1279.88 83.7709 1275.85 79.7317C1271.81 75.6924 1266.33 73.4232 1260.62 73.4232Z" fill="white"/>
<path d="M1274.08 46.4999H1220.23C1218.8 46.4999 1217.43 47.0672 1216.42 48.0771C1215.41 49.0869 1214.85 50.4565 1214.85 51.8845V105.731C1214.85 107.159 1215.41 108.528 1216.42 109.538C1217.43 110.548 1218.8 111.115 1220.23 111.115H1231V105.731H1220.23V68.0383H1279.46V51.8845C1279.46 50.4565 1278.89 49.0869 1277.88 48.0771C1276.87 47.0672 1275.5 46.4999 1274.08 46.4999ZM1220.23 62.6537V51.8845H1274.08V62.6537H1220.23Z" fill="white"/>
<path d="M1255.23 86.8848V103.039L1268.69 94.9617L1255.23 86.8848Z" fill="white"/>
</svg>
